HIERARCHY
ROOT Hips
{
	OFFSET 0.000000 0.000000 0.000000
	CHANNELS 6 Xposition Yposition Zposition Zrotation Yrotation Xrotation 
	JOINT LHipJoint
	{
		OFFSET 0.000000 0.000000 0.000000
		CHANNELS 3 Zrotation Yrotation Xrotation
		JOINT LeftUpLeg
		{
			OFFSET 1.363060 -1.794630 0.839290
			CHANNELS 3 Zrotation Yrotation Xrotation
			JOINT LeftLeg
			{
				OFFSET 2.448110 -6.726130 0.000000
				CHANNELS 3 Zrotation Yrotation Xrotation
				JOINT LeftFoot
				{
					OFFSET 2.562200 -7.039590 0.000000
					CHANNELS 3 Zrotation Yrotation Xrotation
					JOINT LeftToeBase
					{
						OFFSET 0.157640 -0.433110 2.322550
						CHANNELS 3 Zrotation Yrotation Xrotation
						End Site
						{
							OFFSET 0.000000 0.000000 0.000000
						}
					}
				}
			}
		}
	}
	JOINT RHipJoint
	{
		OFFSET 0.000000 0.000000 0.000000
		CHANNELS 3 Zrotation Yrotation Xrotation
		JOINT RightUpLeg
		{
			OFFSET -1.305520 -1.794630 0.839290
			CHANNELS 3 Zrotation Yrotation Xrotation
			JOINT RightLeg
			{
				OFFSET -2.542530 -6.985550 0.000000
				CHANNELS 3 Zrotation Yrotation Xrotation
				JOINT RightFoot
				{
					OFFSET -2.568260 -7.056230 0.000000
					CHANNELS 3 Zrotation Yrotation Xrotation
					JOINT RightToeBase
					{
						OFFSET -0.164730 -0.452590 2.363150
						CHANNELS 3 Zrotation Yrotation Xrotation
						End Site
						{
							OFFSET 0.000000 0.000000 0.000000
						}
					}
				}
			}
		}
	}
	JOINT LowerBack
	{
		OFFSET 0.000000 0.000000 0.000000
		CHANNELS 3 Zrotation Yrotation Xrotation
		JOINT Spine
		{
			OFFSET 0.028270 2.035590 -0.193380
			CHANNELS 3 Zrotation Yrotation Xrotation
			JOINT Spine1
			{
				OFFSET 0.056720 2.048850 -0.042750
				CHANNELS 3 Zrotation Yrotation Xrotation
				JOINT Neck
				{
					OFFSET 0.000000 0.000000 0.000000
					CHANNELS 3 Zrotation Yrotation Xrotation
					JOINT Neck1
					{
						OFFSET -0.054170 1.746240 0.172020
						CHANNELS 3 Zrotation Yrotation Xrotation
						JOINT Head
						{
							OFFSET 0.104070 1.761360 -0.123970
							CHANNELS 3 Zrotation Yrotation Xrotation
							End Site
							{
								OFFSET 0.000000 0.000000 0.000000
							}
						}
					}
				}
				JOINT LeftShoulder
				{
					OFFSET 0.000000 0.000000 0.000000
					CHANNELS 3 Zrotation Yrotation Xrotation
					JOINT LeftArm
					{
						OFFSET 3.362410 1.200890 -0.311210
						CHANNELS 3 Zrotation Yrotation Xrotation
						JOINT LeftForeArm
						{
							OFFSET 4.983000 -0.000000 -0.000000
							CHANNELS 3 Zrotation Yrotation Xrotation
							JOINT LeftHand
							{
								OFFSET 3.483560 -0.000000 -0.000000
								CHANNELS 3 Zrotation Yrotation Xrotation
								JOINT LeftFingerBase
								{
									OFFSET 0.000000 0.000000 0.000000
									CHANNELS 3 Zrotation Yrotation Xrotation
									JOINT LeftHandIndex1
									{
										OFFSET 0.715260 -0.000000 -0.000000
										CHANNELS 3 Zrotation Yrotation Xrotation
										End Site
										{
											OFFSET 0.000000 0.000000 0.000000
										}
									}
								}
								JOINT LThumb
								{
									OFFSET 0.000000 0.000000 0.000000
									CHANNELS 3 Zrotation Yrotation Xrotation
									End Site
									{
										OFFSET 0.000000 0.000000 0.000000
									}
								}
							}
						}
					}
				}
				JOINT RightShoulder
				{
					OFFSET 0.000000 0.000000 0.000000
					CHANNELS 3 Zrotation Yrotation Xrotation
					JOINT RightArm
					{
						OFFSET -3.136600 1.374050 -0.404650
						CHANNELS 3 Zrotation Yrotation Xrotation
						JOINT RightForeArm
						{
							OFFSET -5.241900 -0.000000 -0.000000
							CHANNELS 3 Zrotation Yrotation Xrotation
							JOINT RightHand
							{
								OFFSET -3.444170 -0.000000 -0.000000
								CHANNELS 3 Zrotation Yrotation Xrotation
								JOINT RightFingerBase
								{
									OFFSET 0.000000 0.000000 0.000000
									CHANNELS 3 Zrotation Yrotation Xrotation
									JOINT RightHandIndex1
									{
										OFFSET -0.622530 -0.000000 -0.000000
										CHANNELS 3 Zrotation Yrotation Xrotation
										End Site
										{
											OFFSET 0.000000 0.000000 0.000000
										}
									}
								}
								JOINT RThumb
								{
									OFFSET 0.000000 0.000000 0.000000
									CHANNELS 3 Zrotation Yrotation Xrotation
									End Site
									{
										OFFSET 0.000000 0.000000 0.000000
									}
								}
							}
						}
					}
				}
			}
		}
	}
}
MOTION
Frames: 11
Frame Time: 0.016667
0.568767 17.477406 -0.078413 -1.938824 -4.169429 -1.785162 -25.396466 -4.700429 -7.699398 13.380575 -0.230672 -24.389851 -1.506614 10.873324 11.687869 4.417494 21.864937 50.458428 0.000000 0.000000 0.000000 2.256043 -9.101334 -3.451811 14.503953 9.451452 -12.961324 2.454631 -18.087425 43.640993 2.647759 -11.974826 -0.425760 0.000000 0.000000 0.000000 20.167704 8.711217 5.556363 -8.240560 6.614771 41.927038 -7.541089 1.138618 -29.758974 -4.772563 1.109169 -14.164988 3.611845 0.209412 3.658338 0.000000 0.000000 0.000000 -8.568224 3.507088 0.508627 -69.047071 -9.929230 21.425530 -64.413641 -32.098466 0.058030 1.718571 -1.681969 0.029190 1.715931 -1.679354 0.000000 0.000000 0.000000 0.000000 0.000000 0.000000 0.000000 3.320956 -8.324573 5.611977 59.337576 17.968557 0.621862 46.018438 19.062401 -0.453078 -2.987691 5.552237 -0.227297 -3.018450 5.552048 0.000000 0.000000 0.000000 0.000000 0.000000 0.000000 0.000000 
-0.057509 17.534219 0.133023 -4.918533 5.048417 -1.107116 -22.262153 -2.475878 -4.168991 9.386595 -4.546836 -23.430449 -0.283691 2.526413 3.492395 5.209902 19.302239 53.161046 0.000000 0.000000 0.000000 12.400346 -3.350085 -3.993138 6.025945 6.940748 -17.350503 0.949451 -24.109826 49.842967 5.169709 -20.874608 3.030657 0.000000 0.000000 0.000000 4.379486 3.886653 3.111794 11.789430 -2.106838 53.666756 -9.294458 0.799332 -39.933891 3.460651 -0.384911 -11.721456 -0.810709 -0.232684 5.680917 0.000000 0.000000 0.000000 -16.818075 6.771426 -2.007846 -69.434795 -15.257859 12.160014 -53.928692 -19.152294 0.014145 1.977604 -0.992493 0.007130 1.976518 -0.990534 0.000000 0.000000 0.000000 0.000000 0.000000 0.000000 0.000000 3.191306 -8.382219 2.471974 61.094443 23.162672 2.313214 45.863951 15.849486 -0.419468 -3.160930 4.382379 -0.210262 -3.184222 4.382673 0.000000 0.000000 0.000000 0.000000 0.000000 0.000000 0.000000 
-0.227244 17.592851 0.495055 -5.705486 10.263640 0.933645 -21.523714 0.657904 0.090160 7.382666 -7.263605 -23.707751 0.653575 -4.775492 -7.362036 6.336467 18.984008 57.372227 0.000000 0.000000 0.000000 15.456011 0.212437 -6.005276 1.868833 5.267661 -20.010333 0.441380 -27.336195 54.444202 7.326507 -29.241090 10.492268 0.000000 0.000000 0.000000 0.437747 0.033557 2.576405 18.762877 -7.004963 58.679067 -12.481527 -1.723805 -43.505433 5.164906 -0.117619 -6.650432 1.082967 -0.098472 6.695411 0.000000 0.000000 0.000000 -22.971219 2.175261 -3.590718 -69.544929 -21.923795 9.560427 -39.732121 -19.791982 0.071379 1.780378 -0.134239 0.035790 1.777116 -0.131881 -0.000000 0.000000 0.000000 0.000000 0.000000 0.000000 0.000000 6.339550 -7.847511 -1.015080 63.592386 26.875765 4.149604 44.130910 12.962892 -0.358206 -3.149456 3.561731 -0.179469 -3.166408 3.561912 0.000000 0.000000 0.000000 0.000000 0.000000 0.000000 0.000000 
-0.336289 17.645238 0.816906 -4.521232 10.999058 3.358582 -20.640651 2.981287 0.624513 4.662211 -8.266811 -24.541894 0.991529 -7.102785 -10.666904 6.441388 18.651162 58.593257 0.000000 0.000000 0.000000 20.914367 -2.205754 -0.043558 -5.123941 5.975968 -27.343473 0.186207 -27.164676 53.360331 7.237017 -23.720372 3.479782 0.000000 0.000000 0.000000 -4.057023 -1.444857 -1.234749 21.965476 -8.952516 63.282808 -13.562608 -2.232351 -46.822740 5.225519 -0.031023 -3.873321 1.967588 -0.001828 6.078030 0.000000 0.000000 0.000000 -21.989819 3.586964 -7.211329 -72.487261 -19.358424 18.543914 -38.911566 -31.280386 0.244906 1.823565 1.051335 0.122870 1.811317 1.056232 0.000000 0.000000 0.000000 0.000000 0.000000 0.000000 0.000000 4.413782 -9.463688 -1.299681 67.112542 26.699177 3.682101 45.011731 7.884208 -0.371952 -3.016783 4.018077 -0.186371 -3.035355 4.018530 0.000000 0.000000 0.000000 0.000000 0.000000 0.000000 0.000000 
-0.443994 17.698541 1.136157 -4.010840 11.175934 5.253721 -18.781978 6.098881 1.637456 1.700438 -9.529373 -25.409647 1.229843 -9.377272 -14.015795 6.856699 18.354675 60.307851 0.000000 0.000000 0.000000 23.780991 -5.678849 4.032800 -7.852684 7.137311 -32.694033 -0.167905 -25.931951 51.832599 6.745571 -20.068543 -0.793242 0.000000 0.000000 0.000000 -7.761444 -2.762023 -4.337010 25.369800 -10.607572 67.217358 -14.797902 -3.072503 -49.880294 5.171227 0.121884 -0.752929 3.093869 0.134711 5.404848 0.000000 0.000000 0.000000 -21.122226 4.395662 -11.614824 -75.286010 -15.457959 29.772102 -33.251514 -44.282548 0.434869 1.430238 2.446794 0.218500 1.404682 2.451677 0.000000 0.000000 0.000000 0.000000 0.000000 0.000000 0.000000 2.499810 -11.054901 -1.605565 70.549469 25.912304 3.256918 45.499686 2.916938 -0.380206 -2.855870 4.429141 -0.190517 -2.875651 4.429867 -0.000000 0.000000 0.000000 0.000000 0.000000 0.000000 0.000000 
-0.574405 17.751613 1.346429 -3.630743 12.334445 5.950090 -17.124371 6.967881 1.212770 -1.232287 -10.522967 -24.894305 2.194290 -10.026419 -13.644323 6.475325 17.325277 60.141031 0.000000 0.000000 0.000000 26.741301 -5.707720 6.078879 -11.550156 5.750086 -34.807314 0.587854 -26.588839 50.590067 6.806906 -19.433608 -1.897494 0.000000 0.000000 0.000000 -11.795156 -4.399004 -5.482279 29.175284 -12.906274 70.034279 -16.267708 -4.036265 -52.171741 4.475962 0.904107 -2.101990 4.849685 0.301270 6.328708 0.000000 0.000000 0.000000 -20.379615 3.772483 -15.121460 -77.927404 -12.549017 36.496278 -23.962029 -51.986566 0.520164 0.703038 3.494190 0.261716 0.669374 3.495052 0.000000 0.000000 0.000000 0.000000 0.000000 0.000000 0.000000 1.078632 -10.753567 0.556263 73.474355 27.132122 1.061406 43.918191 -3.252853 -0.374140 -2.598675 4.839839 -0.187483 -2.618668 4.840624 -0.000000 0.000000 0.000000 0.000000 0.000000 0.000000 0.000000 
-0.703720 17.804834 1.553226 -3.125454 13.585008 6.690480 -15.414027 7.769087 0.686839 -4.434789 -11.464087 -24.139825 3.173801 -10.622190 -13.276874 6.102618 16.383482 60.068443 0.000000 0.000000 0.000000 29.709369 -5.551095 7.923243 -15.283664 3.995233 -36.496763 1.482519 -27.340283 49.070456 6.887353 -18.946601 -2.764855 0.000000 0.000000 0.000000 -15.745359 -6.077746 -6.257733 32.780056 -15.068476 72.454548 -17.684983 -5.046244 -54.313703 3.712593 1.885245 -3.599287 6.782184 0.488824 7.426371 0.000000 0.000000 0.000000 -19.671016 2.875656 -18.483827 -80.533057 -9.967158 40.787276 -13.620475 -56.739799 0.526627 -0.247543 4.171401 0.265513 -0.285852 4.165932 0.000000 0.000000 0.000000 0.000000 0.000000 0.000000 0.000000 -0.215076 -10.454533 2.487902 76.471608 27.960683 -0.727566 41.849185 -8.741168 -0.351109 -2.299050 5.120214 -0.175953 -2.318308 5.120899 0.000000 0.000000 0.000000 0.000000 0.000000 0.000000 0.000000 
-0.841439 17.859869 1.843151 -2.468092 14.481935 7.699748 -13.609810 9.841406 1.846567 -7.221497 -12.652084 -24.087008 3.517410 -12.295407 -15.218399 6.337436 16.005285 61.289489 0.000000 0.000000 0.000000 33.320579 -6.483509 10.483650 -19.420211 2.596014 -39.814488 1.327322 -27.494175 48.482468 7.182540 -18.647673 -2.565346 0.000000 0.000000 0.000000 -20.252130 -7.961246 -8.782822 35.233006 -17.045066 74.645003 -16.913133 -5.220902 -55.273481 3.422467 2.399979 -5.165802 7.732911 0.479748 8.951779 0.000000 0.000000 0.000000 -18.948915 2.475457 -18.686848 -81.649886 -9.914380 40.174867 -10.318956 -56.692382 0.528122 -0.495070 4.235245 0.266465 -0.535183 4.227974 0.000000 0.000000 0.000000 0.000000 0.000000 0.000000 0.000000 0.635174 -9.962080 3.224343 77.289304 27.698797 -1.210623 38.718163 -10.715447 -0.308103 -1.988691 5.045415 -0.154389 -2.005313 5.046029 0.000000 0.000000 0.000000 0.000000 0.000000 0.000000 0.000000 
-0.979133 17.914466 2.132189 -1.723024 15.261128 8.746163 -11.901749 11.749617 3.078222 -9.728721 -13.725710 -23.964870 3.685038 -13.892250 -17.140259 6.611760 15.819327 62.485626 0.000000 0.000000 0.000000 37.034049 -7.341601 12.905471 -23.604251 0.826897 -42.792531 1.203238 -27.620290 47.603207 7.514163 -18.469199 -1.991183 0.000000 0.000000 0.000000 -24.699983 -9.813682 -11.129501 37.459316 -18.734537 76.367548 -15.820957 -5.318556 -55.951889 3.283821 2.890455 -6.654675 8.622641 0.445982 10.517546 0.000000 0.000000 0.000000 -18.351464 1.920509 -18.628765 -82.507764 -9.982034 39.411509 -7.247186 -56.490270 0.527811 -0.723418 4.272991 0.266515 -0.765229 4.263967 0.000000 0.000000 0.000000 0.000000 0.000000 0.000000 0.000000 1.681407 -9.515361 3.806650 77.850203 27.117597 -1.478209 35.596516 -12.241260 -0.264742 -1.695465 4.936490 -0.132654 -1.709581 4.936988 0.000000 0.000000 0.000000 0.000000 0.000000 0.000000 0.000000 
-1.085609 17.978131 2.348033 -1.183989 15.949869 9.556039 -10.891651 12.383820 3.731334 -10.779466 -14.121657 -23.628826 3.390747 -14.803998 -18.512751 6.878531 15.978676 63.260159 0.000000 0.000000 0.000000 40.020231 -7.466491 14.446891 -26.682676 -1.039648 -44.037911 1.302517 -27.761498 46.071187 7.613139 -18.367389 -1.326614 0.000000 0.000000 0.000000 -28.001480 -10.902666 -12.181086 39.180458 -19.615095 76.819507 -15.042916 -5.183023 -56.651814 3.646897 3.133749 -7.601431 9.077000 0.417526 11.463174 0.000000 0.000000 0.000000 -18.160187 1.856467 -18.187663 -82.417918 -9.331624 40.188408 -3.968902 -57.827496 0.570728 -1.083791 4.466960 0.288324 -1.130043 4.455141 0.000000 0.000000 0.000000 0.000000 0.000000 0.000000 0.000000 2.185376 -9.623827 3.759359 78.319901 25.945954 -1.186201 33.654195 -12.118004 -0.233196 -1.533317 4.774929 -0.116837 -1.545452 4.775312 0.000000 0.000000 0.000000 0.000000 0.000000 0.000000 0.000000 
-1.191933 18.043873 2.559374 -0.668986 16.550141 10.336193 -9.993832 12.884169 4.372309 -11.539021 -14.444286 -23.328537 3.063586 -15.647599 -19.813933 7.146986 16.216571 63.953596 0.000000 0.000000 0.000000 42.923184 -7.469119 15.796693 -29.511884 -2.929657 -44.800316 1.411369 -27.848436 44.317057 7.704146 -18.365590 -0.471558 0.000000 0.000000 0.000000 -31.169125 -11.859568 -13.079501 40.793606 -20.277809 77.101697 -14.130120 -5.050960 -57.349243 4.081891 3.367452 -8.536808 9.521414 0.385006 12.408652 0.000000 0.000000 0.000000 -18.064594 1.760078 -17.647220 -82.243153 -8.678644 40.945772 -0.544558 -59.126029 0.614281 -1.485670 4.649998 0.310485 -1.536478 4.634804 0.000000 0.000000 0.000000 0.000000 0.000000 0.000000 0.000000 2.757110 -9.840566 3.641953 78.681309 24.662975 -0.852006 31.802276 -11.899787 -0.203323 -1.383626 4.607321 -0.101862 -1.393955 4.607594 0.000000 0.000000 0.000000 0.000000 0.000000 0.000000 0.000000 
